<svg xmlns="http://www.w3.org/2000/svg" viewBox="0 0 1889.18 382.43"><path fill="#fff" d="M96.06 4.82C85.42 10.1 77.42 19.3 73.66 30.58L2.3 245.14c-3.76 11.28-2.88 23.44 2.4 34.08 5.36 10.56 14.56 18.56 25.76 22.32l234 78.56c11.44 3.76 23.44 2.96 34.16-2.4s18.64-14.48 22.4-25.84l71.44-214.48c7.76-23.28-4.96-48.64-28.32-56.48l-234-78.64C118.78-1.42 106.7-.62 96.06 4.74"/><path fill="#0099da" d="M210.46 210.82c-12.72 14.24-28.64 25.6-46.88 32.72l-10.64 4.08v-99.36l10.48 4.08c18.4 7.04 34.32 18.48 47.12 32.64 9.04-14.64 14.72-31.6 15.84-50.08 2.88-47.68-26.96-91.36-68-106.56l-33.76-11.28c-15.28-5.04-31.44 3.36-36.56 18.56L16.38 250.18c-5.04 15.28 3.52 31.84 18.8 36.88l162.48 54.24c16.64-17.6 27.36-40.96 28.88-67.04 1.44-23.2-4.56-45.04-16.08-63.44m-94 42.96h-16.08V142.34h16.08z"/><path fill="#f15c21" d="M201.02 197.86c-9.04-10.64-20-19.52-32.72-26.08v52.4c12.72-6.56 23.68-15.6 32.72-26.32"/><path fill="#0055a2" d="M359.02 95.22 209.9 45.38c20 21.92 32.32 50.96 32.32 82.96 0 25.2-7.76 49.36-21.52 69.52 13.76 20.08 21.68 44.24 21.68 69.44 0 30.16-10.72 57.84-28.8 79.28l56 18.72c15.28 5.12 31.44-3.28 36.48-18.56l71.68-214.64c5.04-15.28-3.52-31.84-18.8-36.88M319.5 253.38h-20.08l-41.44-55.68 42-55.68h20.32l-42.16 55.84 41.36 55.6z"/><g fill="#0055a2"><path d="M485.1 106.98h39.28v234.64H485.1zM578.7 106.98v234.56h71.52c60.72-.08 89.44-21.52 89.52-64.4 0-26.88-15.28-47.28-40.48-54.88l-2.32-.72 2.24-.96c23.44-9.84 34.64-26.8 34.72-52.24 0-40.08-27.36-61.28-82.8-61.36zm64.72 130.88c28 0 55.04 4.48 55.04 36.32 0 11.52-3.92 20.72-12.48 26.16-8.56 5.36-21.44 7.76-39.36 7.76h-28.56v-70.24h25.44m12.8-97.44c11.28 0 38.24 3.84 38.32 31.12 0 14.96-6 23.44-15.92 27.84-9.84 4.32-23.36 4.96-38.48 4.96h-22.16v-63.92h38.32"/></g><path fill="#0055a2" d="M959.98 106.98c-12.4 12.96-105.52 111.28-105.52 111.28S955.5 327.86 968.3 341.54h-54.8c-5.12-5.84-91.76-105.68-91.76-105.68v105.76h-39.28V106.98h39.28v94.88s82.64-89.68 87.52-94.88zM1403.18 241.7v24.08h-95.44v-24h-31.2v99.52h158.32v-99.52h-31.68zm0 75.2h-95.44v-28.48h95.44zm-62-104.72c11.44-8.72 18.96-20.56 21.84-34.24h40.32v50.96h31.36V106.98h-31.36v48.32h-40c-2.24-14.56-9.36-26.56-21.12-35.68-12-9.2-26.08-14-42.08-14-17.28 0-32.4 5.68-45.52 16.96-13.04 11.28-19.68 25.68-19.68 42.96s6.64 31.52 19.68 42.8c13.12 11.44 28.24 17.12 45.52 17.12 15.6 0 29.36-4.4 41.04-13.2zm-65.12-20.16c-6.32-7.2-9.36-15.92-9.36-26.32s3.2-19.12 9.6-26 14.24-10.32 23.84-10.32c10.24 0 18.08 3.44 24 10.32s8.8 15.6 8.8 26-2.96 19.12-9.04 26.32c-6.24 7.2-14.16 10.72-24.32 10.72-9.28 0-17.04-3.52-23.44-10.72zm-102.48-84.96v234.56h31.44V107.06zm-157.92 28.8h82.08v17.92c-1.12 56.48-40.72 103.6-93.76 116.08l-1.28.32 16 19.76.56-.16c60.32-17.68 110.24-73.84 110.24-135.6v-41.04h-113.84v22.8zM1527.98 264.98h-31.68v75.76h158.16V318.1h-126.48zM1623.74 115.46c-14.64-9.92-32-15.04-52.48-15.04s-38 5.04-52.56 15.04c-14.64 10-22.08 24.16-22.08 42s7.44 31.6 22.08 41.52q21.84 14.88 52.56 14.88c30.72 0 37.84-4.96 52.48-14.88 14.72-9.92 22.08-23.92 22.08-41.52s-7.36-32-22.08-42m-22 66.56c-7.92 6.48-18.08 9.68-30.56 9.68s-22.32-3.2-30.32-9.68c-7.84-6.48-11.84-14.48-11.84-24.56s4-18.32 11.84-25.2c7.92-6.88 17.92-10.32 30.32-10.32s22.56 3.52 30.48 10.32c8 6.8 11.84 15.12 11.84 25.2s-3.84 18.16-11.76 24.56M1466.3 225.7h208.8v24.56h-208.8zM1861.82 265.86c-14.08-8.32-30.8-12.48-50.4-12.48s-36.48 4.08-50.4 12.48c-14 8.16-20.96 19.68-20.96 34.4s6.96 25.84 20.96 34.08c13.92 8.16 30.72 12.16 50.4 12.16s36.32-4.08 50.4-12.16c13.84-8.24 20.8-19.6 20.8-34.08s-6.96-26.16-20.8-34.4m-20.88 52.4c-7.68 4.8-17.52 7.12-29.6 7.12s-21.68-2.4-29.36-7.12c-7.6-4.72-11.52-10.72-11.52-18.08s3.84-13.6 11.52-18.56c7.68-5.12 17.52-7.6 29.36-7.6s21.92 2.56 29.6 7.6 11.52 11.12 11.52 18.56-3.84 13.28-11.52 18.08M1704.14 110.26h70.96v21.04h-70.96zM1859.1 107.3v54.08h-17.68V107.3h-30v132.48h30v-57.36h17.68v66.48h30.08V107.3zM1800.7 138.9h-109.04v20.88h22.96c-13.28 8.56-22 22.16-22 37.68 0 26 24.08 46.96 53.68 46.96s53.84-21.04 53.84-46.96c0-15.6-8.72-29.12-22-37.68h22.56zm-54.4 86.72c-14 0-25.52-12.64-25.52-28.08s11.52-28.08 25.52-28.08 25.6 12.56 25.6 28.08-11.44 28.08-25.6 28.08"/></svg>